<svg id="visual" viewBox="0 0 900 600" width="900" height="600" xmlns="http://www.w3.org/2000/svg" xmlns:xlink="http://www.w3.org/1999/xlink" version="1.1"><path d="M488 600L507 585.7C526 571.3 564 542.7 562.5 514.2C561 485.7 520 457.3 497.2 428.8C474.3 400.3 469.7 371.7 479.8 343C490 314.3 515 285.7 544.3 257C573.7 228.3 607.3 199.7 638.7 171.2C670 142.7 699 114.3 709.5 85.8C720 57.3 712 28.7 708 14.3L704 0L900 0L900 14.3C900 28.7 900 57.3 900 85.8C900 114.3 900 142.7 900 171.2C900 199.7 900 228.3 900 257C900 285.7 900 314.3 900 343C900 371.7 900 400.3 900 428.8C900 457.3 900 485.7 900 514.2C900 542.7 900 571.3 900 585.7L900 600Z" fill="#242628" stroke-linecap="round" stroke-linejoin="miter"></path></svg>